<?xml version="1.0" encoding="UTF-8"?>
<svg version="1.1" xmlns="http://www.w3.org/2000/svg" width="420" height="123">
<path d="M0 0 C0.67047363 0.00725098 1.34094727 0.01450195 2.03173828 0.02197266 C10.10862326 0.13811602 16.86180882 0.32059115 23 6 C27.30918406 10.75115166 28.1692723 13.37251172 28.25 19.75 C28.27578125 20.96171875 28.3015625 22.1734375 28.328125 23.421875 C27.88632246 28.23962653 26.42329909 31.57670091 23 35 C24.2065625 36.3921875 24.2065625 36.3921875 25.4375 37.8125 C30.05885614 43.144834 29.46512067 49.26469487 29 56 C27.17446721 62.16117318 23.31282957 64.72496808 18 68 C6 71 6 71 -20 71 C-20 47.9 -20 24.8 -20 1 C-13.29948857 -0.34010229 -6.80456123 -0.13663778 0 0 Z M-5 15 C-5 19.29 -5 23.58 -5 28 C-2.4321875 28.061875 -2.4321875 28.061875 0.1875 28.125 C1.63189453 28.15980469 1.63189453 28.15980469 3.10546875 28.1953125 C7.27387844 27.91404329 10.03688631 26.96311369 13 24 C13.58402133 21.58582128 13.58402133 21.58582128 13 19 C10.22707623 16.16522663 8.64490124 15.0756039 4.66796875 14.609375 C2.94513672 14.67898437 2.94513672 14.67898437 1.1875 14.75 C-1.8753125 14.87375 -1.8753125 14.87375 -5 15 Z M-5 42 C-5 46.29 -5 50.58 -5 55 C5.00875858 55.60112448 5.00875858 55.60112448 14 52 C15.05749557 48.91630113 15.05749557 48.91630113 15 46 C12.01664332 43.0571938 10.4634017 42.0480209 6.23046875 41.609375 C4.88225415 41.63568163 3.53430482 41.68298196 2.1875 41.75 C1.49462891 41.76804688 0.80175781 41.78609375 0.08789062 41.8046875 C-1.60867664 41.85148936 -3.30452476 41.92322376 -5 42 Z " fill="#054765" transform="translate(128,15)"/>
<path d="M0 0 C4.62 0 9.24 0 14 0 C15 1 15 1 15.12025452 3.09437561 C15.1169236 4.47670631 15.1169236 4.47670631 15.11352539 5.88696289 C15.11344986 6.92796646 15.11337433 7.96897003 15.11329651 9.04151917 C15.10813522 10.1737944 15.10297394 11.30606964 15.09765625 12.47265625 C15.0962413 13.62543564 15.09482635 14.77821503 15.09336853 15.96592712 C15.08775005 19.66481064 15.07519442 23.36363464 15.0625 27.0625 C15.05748738 29.56315017 15.05292406 32.06380129 15.04882812 34.56445312 C15.03777462 40.70965588 15.02101852 46.85482369 15 53 C15.69150146 52.99476318 16.38300293 52.98952637 17.09545898 52.98413086 C20.20946352 52.963425 23.32345361 52.95036037 26.4375 52.9375 C27.52611328 52.92912109 28.61472656 52.92074219 29.73632812 52.91210938 C30.77080078 52.90888672 31.80527344 52.90566406 32.87109375 52.90234375 C33.82943115 52.89710693 34.78776855 52.89187012 35.77514648 52.88647461 C38 53 38 53 39 54 C39 59.28 39 64.56 39 70 C26.13 70 13.26 70 0 70 C0 46.9 0 23.8 0 0 Z " fill="#034766" transform="translate(11,15)"/>
<path d="M0 0 C2.97 0 5.94 0 9 0 C9 9.57 9 19.14 9 29 C12.96 29 16.92 29 21 29 C24.12363468 23.30453993 26.0982531 17.26050988 28.1875 11.125 C28.73954102 9.52011719 28.73954102 9.52011719 29.30273438 7.8828125 C30.20554341 5.25645894 31.10450826 2.6288556 32 0 C35.3 0 38.6 0 42 0 C42.3853894 1.11858398 42.3853894 1.11858398 42.77856445 2.25976562 C43.95543373 5.67356063 45.13395366 9.08678362 46.3125 12.5 C46.91868164 14.25957031 46.91868164 14.25957031 47.53710938 16.0546875 C50.07095854 23.38980552 50.07095854 23.38980552 52.79296875 30.65625 C54 34 54 34 54 37 C46.61195219 37.36334661 46.61195219 37.36334661 44 35.8125 C43 34 43 34 43 29 C39.7 29 36.4 29 33 29 C32.33744759 30.32510482 31.69130398 31.65855152 31.0625 33 C30 35 30 35 28 37 C25.20263672 37.22705078 25.20263672 37.22705078 21.6796875 37.1953125 C19.98175049 37.18781982 19.98175049 37.18781982 18.24951172 37.18017578 C16.80592285 37.16196777 15.36233398 37.14375977 13.875 37.125 C9.29625 37.08375 4.7175 37.0425 0 37 C0 24.79 0 12.58 0 0 Z M36 12 C35.34 15.3 34.68 18.6 34 22 C35.98 22 37.96 22 40 22 C39.01 18.7 38.02 15.4 37 12 C36.67 12 36.34 12 36 12 Z " fill="#0B4864" transform="translate(217,44)"/>
<path d="M0 0 C1.52636719 2.2746582 1.52636719 2.2746582 2.796875 5.30078125 C3.27656738 6.41445068 3.75625977 7.52812012 4.25048828 8.67553711 C4.74532715 9.87573486 5.24016602 11.07593262 5.75 12.3125 C6.27256816 13.54065153 6.79715998 14.7679439 7.32373047 15.99438477 C8.38559292 18.47179898 9.43869398 20.95264943 10.48535156 23.43652344 C12.62505804 28.47055887 14.86692998 33.45571541 17.125 38.4375 C17.49077148 39.2519458 17.85654297 40.0663916 18.23339844 40.90551758 C20.07514146 45.03402197 20.07514146 45.03402197 22.12060547 49.06274414 C23.45407182 52.00029424 22.78698122 53.91261213 22 57 C20.35417257 61.26418926 18.45306457 65.14518425 16 69 C15.01 68.67 14.02 68.34 13 68 C12.30117896 66.21800634 11.61881745 64.42851774 11 62.6171875 C9.78548614 59.43857702 8.29099807 56.47133995 6.75 53.4375 C0.79389779 41.69031044 -4.61772707 29.69798822 -10.03192139 17.69387817 C-10.63481086 16.35813078 -11.23885272 15.02290292 -11.84405518 13.6882019 C-12.70056766 11.79770481 -13.55209554 9.90503991 -14.40234375 8.01171875 C-15.15245728 6.34822388 -15.15245728 6.34822388 -15.91772461 4.65112305 C-17 2 -17 2 -17 0 C-15.10507254 -0.19644384 -13.20899097 -0.38177288 -11.3125 -0.5625 C-9.72888672 -0.71912109 -9.72888672 -0.71912109 -8.11328125 -0.87890625 C-5.02880214 -0.99887972 -2.91842796 -0.98707732 0 0 Z " fill="#074865" transform="translate(59,16)"/>
<path d="M0 0 C2.97 0 5.94 0 9 0 C12.33333333 6.66666667 15.66666667 13.33333333 19 20 C19.2673999 19.42967041 19.5347998 18.85934082 19.81030273 18.27172852 C21.01714167 15.70093338 22.2272751 13.13170278 23.4375 10.5625 C24.06881836 9.21575195 24.06881836 9.21575195 24.71289062 7.84179688 C25.11572266 6.98779297 25.51855469 6.13378906 25.93359375 5.25390625 C26.30540771 4.46314697 26.67722168 3.6723877 27.06030273 2.85766602 C28 1 28 1 29 0 C31.64 0 34.28 0 37 0 C37 12.21 37 24.42 37 37 C34.69 37 32.38 37 30 37 C28.05909174 35.05909174 28.60080565 31.52706098 28.4375 28.9375 C28.35371094 27.64714844 28.26992188 26.35679688 28.18359375 25.02734375 C28.12300781 24.02832031 28.06242187 23.02929688 28 22 C27.61328125 22.78246094 27.2265625 23.56492187 26.828125 24.37109375 C26.30734375 25.38300781 25.7865625 26.39492187 25.25 27.4375 C24.73953125 28.44683594 24.2290625 29.45617187 23.703125 30.49609375 C22 33 22 33 19.91796875 33.9296875 C18 34 18 34 16.0625 32.6875 C13.03915094 28.74798456 11.12528672 24.48671642 9 20 C8.67 25.61 8.34 31.22 8 37 C5.36 37 2.72 37 0 37 C0 24.79 0 12.58 0 0 Z M29 17 C30 19 30 19 30 19 Z " fill="#054764" transform="translate(374,44)"/>
<path d="M0 0 C7 0 7 0 8.77270508 1.3293457 C9.18415771 1.93866943 9.59561035 2.54799316 10.01953125 3.17578125 C10.48423828 3.83900391 10.94894531 4.50222656 11.42773438 5.18554688 C11.88470703 5.88744141 12.34167969 6.58933594 12.8125 7.3125 C13.28880859 8.00279297 13.76511719 8.69308594 14.25585938 9.40429688 C15.52738638 11.25525391 16.76903997 13.12192501 18 15 C18.99 16.485 18.99 16.485 20 18 C20.33 12.06 20.66 6.12 21 0 C23.64 0 26.28 0 29 0 C29 12.21 29 24.42 29 37 C22 36 22 36 19.99609375 34.21484375 C19.48175781 33.46332031 18.96742188 32.71179688 18.4375 31.9375 C17.86773437 31.133125 17.29796875 30.32875 16.7109375 29.5 C16.14632813 28.675 15.58171875 27.85 15 27 C13.86071189 25.47425734 12.7153682 23.95300749 11.5625 22.4375 C10.716875 21.303125 9.87125 20.16875 9 19 C8.67 24.94 8.34 30.88 8 37 C5.36 37 2.72 37 0 37 C0 24.79 0 12.58 0 0 Z " fill="#0B4964" transform="translate(309,44)"/>
<path d="M0 0 C2.97 0 5.94 0 9 0 C9.01458252 0.74161377 9.02916504 1.48322754 9.04418945 2.24731445 C9.11859457 5.60290631 9.21528006 8.95749494 9.3125 12.3125 C9.33505859 13.47974609 9.35761719 14.64699219 9.38085938 15.84960938 C9.41630859 16.96787109 9.45175781 18.08613281 9.48828125 19.23828125 C9.51446533 20.26993408 9.54064941 21.30158691 9.56762695 22.36450195 C9.79992031 25.02191836 9.79992031 25.02191836 11.36791992 26.87182617 C13.03096925 28.27296521 13.03096925 28.27296521 15.625 27.8125 C18.16552003 27.25355766 18.16552003 27.25355766 19 25 C19.15344209 23.11527141 19.24959571 21.22572126 19.31640625 19.3359375 C19.35830078 18.21445312 19.40019531 17.09296875 19.44335938 15.9375 C19.48267578 14.761875 19.52199219 13.58625 19.5625 12.375 C19.60568359 11.19164062 19.64886719 10.00828125 19.69335938 8.7890625 C19.79967426 5.85949672 19.90170642 2.92984412 20 0 C22.97 0 25.94 0 29 0 C29.14620188 4.3329738 29.2343773 8.66530638 29.3125 13 C29.35439453 14.22074219 29.39628906 15.44148438 29.43945312 16.69921875 C29.53864829 24.03966088 29.14581712 29.45197 24 35 C19.87417262 37.75055159 14.80982939 37.52687177 10 37 C5.44685948 35.5395587 3.12107101 33.57161401 0.8137207 29.36499023 C-0.97926004 24.15388778 -0.39831622 18.50171206 -0.25 13.0625 C-0.23195313 11.80630859 -0.21390625 10.55011719 -0.1953125 9.25585938 C-0.14837594 6.16978084 -0.08272414 3.08529219 0 0 Z " fill="#0D4964" transform="translate(342,44)"/>
<path d="M0 0 C1.28132813 0.00902344 2.56265625 0.01804687 3.8828125 0.02734375 C4.87023437 0.03894531 5.85765625 0.05054688 6.875 0.0625 C7.93193336 2.76265954 7.91468881 3.94126793 6.99804688 6.74121094 C6.30291992 8.25376465 6.30291992 8.25376465 5.59375 9.796875 C4.82961792 11.4840564 4.82961792 11.4840564 4.05004883 13.20532227 C3.49728271 14.39569092 2.9445166 15.58605957 2.375 16.8125 C1.81740624 18.03452928 1.26101218 19.25710666 0.70581055 20.48022461 C-0.39283304 22.89835165 -1.49682447 25.31376563 -2.60400391 27.72802734 C-4.55551381 32.00631341 -6.44407788 36.3099326 -8.3125 40.625 C-11.00215517 46.81681034 -11.00215517 46.81681034 -12.125 49.0625 C-15.125 48.0625 -15.125 48.0625 -16.765625 45.33203125 C-17.29671875 44.19121094 -17.8278125 43.05039062 -18.375 41.875 C-18.91640625 40.74707031 -19.4578125 39.61914062 -20.015625 38.45703125 C-21.92044338 32.62855529 -19.85442942 27.93140848 -17.69140625 22.38671875 C-17.45340805 21.77609085 -17.21540985 21.16546295 -16.97019958 20.53633118 C-16.4696276 19.25704158 -15.96609003 17.97890874 -15.4597168 16.7019043 C-14.6842322 14.7417401 -13.92270103 12.77653065 -13.16210938 10.81054688 C-12.67270229 9.56477884 -12.18249632 8.3193243 -11.69140625 7.07421875 C-11.24740479 5.94459717 -10.80340332 4.81497559 -10.34594727 3.65112305 C-8.1096655 -1.0901878 -4.81767625 -0.04379706 0 0 Z " fill="#054765" transform="translate(96.125,14.9375)"/>
<path d="M0 0 C3.04317386 -0.13558695 6.08025562 -0.23437239 9.125 -0.3125 C10.40890625 -0.3753418 10.40890625 -0.3753418 11.71875 -0.43945312 C16.08902477 -0.52349687 19.05402125 -0.45416575 22.52734375 2.375 C25.4883409 5.51842825 26.96488314 7.5368032 27.02734375 11.91796875 C26.67796348 16.69283242 25.57724551 19.62149035 22 23 C18.02793243 25.25441673 14.50322732 25.17659715 10 25 C10 28.96 10 32.92 10 37 C3.06640625 37.09765625 3.06640625 37.09765625 1 37 C0 36 0 36 -0.11352539 32.58178711 C-0.11336628 31.06363012 -0.10767226 29.54546771 -0.09765625 28.02734375 C-0.0962413 27.22970108 -0.09482635 26.43205841 -0.09336853 25.61024475 C-0.08775316 23.05262565 -0.07519812 20.49509282 -0.0625 17.9375 C-0.05748698 16.20768355 -0.05292373 14.47786574 -0.04882812 12.74804688 C-0.03777875 8.49866447 -0.02050386 4.24934688 0 0 Z M10 8 C10 10.97 10 13.94 10 17 C11.99954746 17.04254356 14.00041636 17.04080783 16 17 C17.41577477 15.81575674 17.41577477 15.81575674 17.0625 12.4375 C17.041875 11.303125 17.02125 10.16875 17 9 C14.69 8.67 12.38 8.34 10 8 Z " fill="#034867" transform="translate(188,44)"/>
<path d="M0 0 C1.98 0.495 1.98 0.495 4 1 C4 34.33 4 67.66 4 102 C2.35 102 0.7 102 -1 102 C-1.0231209 88.84850976 -1.04091379 75.69702431 -1.05181217 62.54551792 C-1.05704156 56.43943631 -1.0641402 50.33336856 -1.07543945 44.22729492 C-1.08626637 38.33994853 -1.09227642 32.45261551 -1.09487724 26.56525993 C-1.09673185 24.31367723 -1.10035313 22.06209531 -1.10573006 19.81051826 C-1.11293789 16.66866573 -1.11399105 13.52686917 -1.11352539 10.38500977 C-1.11712067 9.44418045 -1.12071594 8.50335114 -1.12442017 7.53401184 C-1.11405216 1.11405216 -1.11405216 1.11405216 0 0 Z " fill="#10506F" transform="translate(171,12)"/>
<path d="M0 0 C1.12591553 0.00523682 2.25183105 0.01047363 3.41186523 0.01586914 C4.62680664 0.0190918 5.84174805 0.02231445 7.09350586 0.02563477 C8.37290039 0.03401367 9.65229492 0.04239258 10.97045898 0.05102539 C12.2537207 0.05553711 13.53698242 0.06004883 14.85913086 0.06469727 C18.04211921 0.07652994 21.22501661 0.09301471 24.40795898 0.11352539 C24.40795898 2.75352539 24.40795898 5.39352539 24.40795898 8.11352539 C21.76795898 8.11352539 19.12795898 8.11352539 16.40795898 8.11352539 C16.40795898 17.68352539 16.40795898 27.25352539 16.40795898 37.11352539 C13.10795898 37.11352539 9.80795898 37.11352539 6.40795898 37.11352539 C6.40795898 27.54352539 6.40795898 17.97352539 6.40795898 8.11352539 C3.43795898 8.11352539 0.46795898 8.11352539 -2.59204102 8.11352539 C-2.97267322 5.78743969 -3.30474046 3.45297275 -3.59204102 1.11352539 C-2.59204102 0.11352539 -2.59204102 0.11352539 0 0 Z " fill="#074865" transform="translate(268.592041015625,43.886474609375)"/>
<path d="M0 0 C2.97 0 5.94 0 9 0 C9 12.21 9 24.42 9 37 C6.03 37 3.06 37 0 37 C0 24.79 0 12.58 0 0 Z " fill="#064A68" transform="translate(296,44)"/>
<path d="M0 0 C1.98 0 3.96 0 6 0 C6 9.57 6 19.14 6 29 C8.97 28.67 11.94 28.34 15 28 C17.5625 29.8125 17.5625 29.8125 19 32 C19 32.66 19 33.32 19 34 C12.73 34 6.46 34 0 34 C0 22.78 0 11.56 0 0 Z " fill="#044869" transform="translate(218,46)"/>
<path d="M0 0 C0 17.16 0 34.32 0 52 C7.59 52 15.18 52 23 52 C27.01386486 56.01386486 24 63.32353788 24 69 C11.13 69 -1.74 69 -15 69 C-15 68.67 -15 68.34 -15 68 C-2.65675952 66.92333105 9.61701934 66.89840763 22 67 C22 62.71 22 58.42 22 54 C21.01773438 54.17273438 20.03546875 54.34546875 19.0234375 54.5234375 C14.83395339 55.12072919 10.8322893 54.93492923 6.625 54.625 C5.90183594 54.58117187 5.17867187 54.53734375 4.43359375 54.4921875 C-0.86574132 54.13425868 -0.86574132 54.13425868 -2 53 C-2.09340434 51.37325222 -2.11745171 49.74245949 -2.11352539 48.11303711 C-2.11344986 47.07203354 -2.11337433 46.03102997 -2.11329651 44.95848083 C-2.10813522 43.8262056 -2.10297394 42.69393036 -2.09765625 41.52734375 C-2.0962413 40.37456436 -2.09482635 39.22178497 -2.09336853 38.03407288 C-2.08775005 34.33518936 -2.07519442 30.63636536 -2.0625 26.9375 C-2.05748738 24.43684983 -2.05292406 21.93619871 -2.04882812 19.43554688 C-2.03777462 13.29034412 -2.02101852 7.14517631 -2 1 C-4.97 1 -7.94 1 -11 1 C-11 0.67 -11 0.34 -11 0 C-6.79405774 -0.72795155 -4.19895255 -1.04973814 0 0 Z " fill="#194A63" transform="translate(26,16)"/>
<path d="M0 0 C3.375 -0.1875 3.375 -0.1875 7 0 C9.1519437 3.22791555 9.20086443 4.28400809 9 8 C9.66 8 10.32 8 11 8 C11.33 8.99 11.66 9.98 12 11 C11.34 11 10.68 11 10 11 C10.33 11.99 10.66 12.98 11 14 C10.0625 16.6875 10.0625 16.6875 9 19 C8.67 18.01 8.34 17.02 8 16 C6.68 16 5.36 16 4 16 C4.33 16.66 4.66 17.32 5 18 C5.2322646 20.71262116 5.41936235 23.40773126 5.5625 26.125 C5.60568359 26.87910156 5.64886719 27.63320312 5.69335938 28.41015625 C5.7994832 30.27321888 5.90025001 32.13658524 6 34 C4.125 34.625 4.125 34.625 2 35 C0 33 0 33 -0.22705078 29.74365234 C-0.22673382 28.35770705 -0.21541759 26.97173699 -0.1953125 25.5859375 C-0.1924826 24.85629791 -0.18965271 24.12665833 -0.18673706 23.37490845 C-0.17553002 21.04143972 -0.1504251 18.70835297 -0.125 16.375 C-0.11497085 14.79427637 -0.10584489 13.21354673 -0.09765625 11.6328125 C-0.07558905 7.75506086 -0.04105615 3.87759522 0 0 Z " fill="#054968" transform="translate(375,45)"/>
<path d="M0 0 C5 0 5 0 6.73046875 1.71484375 C7.21128906 2.44832031 7.69210937 3.18179688 8.1875 3.9375 C10.11162944 7.00584213 10.11162944 7.00584213 13 9 C12.67 9.66 12.34 10.32 12 11 C11.34 11 10.68 11 10 11 C9.67 12.32 9.34 13.64 9 15 C8.67 14.34 8.34 13.68 8 13 C7.01 13 6.02 13 5 13 C4.957279 14.66611905 4.95936168 16.33382885 5 18 C5.33 18.33 5.66 18.66 6 19 C6.07313567 21.53049402 6.09247527 24.03304837 6.0625 26.5625 C6.05798828 27.27341797 6.05347656 27.98433594 6.04882812 28.71679688 C6.03700864 30.47790013 6.01907263 32.23896036 6 34 C3.03 34.495 3.03 34.495 0 35 C0 23.45 0 11.9 0 0 Z " fill="#034867" transform="translate(310,45)"/>
<path d="M0 0 C3.04317386 -0.13558695 6.08025562 -0.23437239 9.125 -0.3125 C10.40890625 -0.3753418 10.40890625 -0.3753418 11.71875 -0.43945312 C16.08902477 -0.52349687 19.05402125 -0.45416575 22.52734375 2.375 C25.4883409 5.51842825 26.96488314 7.5368032 27.02734375 11.91796875 C26.67990565 16.66628951 25.61714565 19.68428316 22 23 C19.25 23.8125 19.25 23.8125 17 24 C17.75 22.125 17.75 22.125 19 20 C19.66 19.7525 20.32 19.505 21 19.25 C23.539056 17.66309 23.55105951 16.72068627 24.25 13.875 C24.4975 12.59625 24.745 11.3175 25 10 C24.34 10 23.68 10 23 10 C22.67 8.35 22.34 6.7 22 5 C21.34 5 20.68 5 20 5 C20 4.34 20 3.68 20 3 C14.39 2.67 8.78 2.34 3 2 C3 12.89 3 23.78 3 35 C4.98 35.33 6.96 35.66 9 36 C8.4740625 34.4221875 8.4740625 34.4221875 7.9375 32.8125 C7.05029473 29.2045319 6.94737118 27.47367511 8 24 C10.31 24 12.62 24 15 24 C15 24.33 15 24.66 15 25 C13.35 25 11.7 25 10 25 C10 28.96 10 32.92 10 37 C3.06640625 37.09765625 3.06640625 37.09765625 1 37 C0 36 0 36 -0.11352539 32.58178711 C-0.11336628 31.06363012 -0.10767226 29.54546771 -0.09765625 28.02734375 C-0.0962413 27.22970108 -0.09482635 26.43205841 -0.09336853 25.61024475 C-0.08775316 23.05262565 -0.07519812 20.49509282 -0.0625 17.9375 C-0.05748698 16.20768355 -0.05292373 14.47786574 -0.04882812 12.74804688 C-0.03777875 8.49866447 -0.02050386 4.24934688 0 0 Z " fill="#194C62" transform="translate(188,44)"/>
<path d="M0 0 C9 0 9 0 11.625 0.9375 C13.63283595 3.94925393 12.85255268 6.2978082 12.1640625 9.74609375 C11.96659653 12.45890009 12.71667323 13.65045061 14 16 C14 16.99 14 17.98 14 19 C11.625 19.1875 11.625 19.1875 9 19 C8.34 18.01 7.68 17.02 7 16 C6.34 16.99 5.68 17.98 5 19 C3.35 18.67 1.7 18.34 0 18 C0 12.06 0 6.12 0 0 Z M6 5 C6.33 5.99 6.66 6.98 7 8 C7.33 7.01 7.66 6.02 8 5 C7.34 5 6.68 5 6 5 Z " fill="#0A4765" transform="translate(77,92)"/>
<path d="M0 0 C1.98 0.495 1.98 0.495 4 1 C4 34.33 4 67.66 4 102 C2.35 102 0.7 102 -1 102 C-1.0231209 88.84850976 -1.04091379 75.69702431 -1.05181217 62.54551792 C-1.05704156 56.43943631 -1.0641402 50.33336856 -1.07543945 44.22729492 C-1.08626637 38.33994853 -1.09227642 32.45261551 -1.09487724 26.56525993 C-1.09673185 24.31367723 -1.10035313 22.06209531 -1.10573006 19.81051826 C-1.11293789 16.66866573 -1.11399105 13.52686917 -1.11352539 10.38500977 C-1.11712067 9.44418045 -1.12071594 8.50335114 -1.12442017 7.53401184 C-1.11405216 1.11405216 -1.11405216 1.11405216 0 0 Z M0 2 C0 34.34 0 66.68 0 100 C0.99 100 1.98 100 3 100 C3 67.66 3 35.32 3 2 C2.01 2 1.02 2 0 2 Z " fill="#224D62" transform="translate(171,12)"/>
<path d="M0 0 C1.98 0 3.96 0 6 0 C6.33 4.29 6.66 8.58 7 13 C7.66 13 8.32 13 9 13 C9.33 8.71 9.66 4.42 10 0 C11.65 0 13.3 0 15 0 C15.10826289 2.4178712 15.18739789 4.83087556 15.25 7.25 C15.30027344 8.27287109 15.30027344 8.27287109 15.3515625 9.31640625 C15.41885011 12.78171807 15.27037587 14.63853801 13.16796875 17.44921875 C11 19 11 19 8.0625 19.5625 C5 19 5 19 2.125 17.375 C-1.28461567 11.95972805 -0.37947338 6.23179623 0 0 Z " fill="#17475F" transform="translate(44,92)"/>
<path d="M0 0 C1.98 0 3.96 0 6 0 C7.98 5.94 9.96 11.88 12 18 C10.35 18.33 8.7 18.66 7 19 C6.34 18.01 5.68 17.02 5 16 C2.43717258 15.27034634 2.43717258 15.27034634 0 15 C-0.33 16.32 -0.66 17.64 -1 19 C-2.65 18.67 -4.3 18.34 -6 18 C-5.18957506 15.37434281 -4.37675813 12.74946834 -3.5625 10.125 C-3.33240234 9.37863281 -3.10230469 8.63226563 -2.86523438 7.86328125 C-1.11328125 2.2265625 -1.11328125 2.2265625 0 0 Z M2 8 C3 11 3 11 3 11 Z " fill="#0D4964" transform="translate(113,92)"/>
<path d="M0 0 C3.5 0.1875 3.5 0.1875 5.5 1.1875 C5.314375 2.321875 5.12875 3.45625 4.9375 4.625 C4.7209375 6.3884375 4.7209375 6.3884375 4.5 8.1875 C4.83 8.5175 5.16 8.8475 5.5 9.1875 C5.95681382 15.35448656 5.95681382 15.35448656 4.4375 18.125 C1.42115289 19.77912584 -1.13666608 19.49325763 -4.5 19.1875 C-5.16 18.5275 -5.82 17.8675 -6.5 17.1875 C-6.125 15.0625 -6.125 15.0625 -5.5 13.1875 C-3.85 13.1875 -2.2 13.1875 -0.5 13.1875 C-1.7375 12.6925 -1.7375 12.6925 -3 12.1875 C-5.5 10.1875 -5.5 10.1875 -5.90234375 8.27734375 C-5.9375 6.125 -5.9375 6.125 -5.5 2.1875 C-3.5 0.1875 -3.5 0.1875 0 0 Z " fill="#104A64" transform="translate(21.5,91.8125)"/>
<path d="M0 0 C1.98 0 3.96 0 6 0 C6.05785647 3.95827235 6.09354717 7.9164367 6.125 11.875 C6.14175781 13.00292969 6.15851563 14.13085938 6.17578125 15.29296875 C6.18222656 16.36933594 6.18867188 17.44570313 6.1953125 18.5546875 C6.20578613 19.54968262 6.21625977 20.54467773 6.22705078 21.56982422 C6 24 6 24 4 26 C4.33 26.66 4.66 27.32 5 28 C3.35 27.67 1.7 27.34 0 27 C-0.99384397 23.74741974 -1.04826731 20.96534629 -0.87890625 17.578125 C-0.83056641 16.55332031 -0.78222656 15.52851562 -0.73242188 14.47265625 C-0.67634766 13.40917969 -0.62027344 12.34570312 -0.5625 11.25 C-0.51029297 10.17105469 -0.45808594 9.09210937 -0.40429688 7.98046875 C-0.27480531 5.32000578 -0.13984639 2.65993548 0 0 Z " fill="#054969" transform="translate(344,46)"/>
<path d="M0 0 C1.93166016 0.01740234 1.93166016 0.01740234 3.90234375 0.03515625 C5.19269531 0.04417969 6.48304688 0.05320312 7.8125 0.0625 C8.81152344 0.07410156 9.81054688 0.08570312 10.83984375 0.09765625 C10.50984375 1.74765625 10.17984375 3.39765625 9.83984375 5.09765625 C8.51984375 5.09765625 7.19984375 5.09765625 5.83984375 5.09765625 C6.16984375 6.08765625 6.49984375 7.07765625 6.83984375 8.09765625 C6.93251963 9.80398273 6.96982577 11.51382212 6.96484375 13.22265625 C6.96742188 14.11210938 6.97 15.0015625 6.97265625 15.91796875 C6.83984375 18.09765625 6.83984375 18.09765625 5.83984375 19.09765625 C4.18984375 19.09765625 2.53984375 19.09765625 0.83984375 19.09765625 C0.83984375 14.47765625 0.83984375 9.85765625 0.83984375 5.09765625 C-0.48015625 5.09765625 -1.80015625 5.09765625 -3.16015625 5.09765625 C-3.72265625 3.16015625 -3.72265625 3.16015625 -4.16015625 1.09765625 C-3.16015625 0.09765625 -3.16015625 0.09765625 0 0 Z " fill="#0B4866" transform="translate(142.16015625,91.90234375)"/>
<path d="M0 0 C2.97 0 5.94 0 9 0 C12.33333333 6.66666667 15.66666667 13.33333333 19 20 C19.66 19.34 20.32 18.68 21 18 C21 19.32 21 20.64 21 22 C20.01 22.33 19.02 22.66 18 23 C12 13.28571429 12 13.28571429 12 9 C11.34 9 10.68 9 10 9 C9.34 6.36 8.68 3.72 8 1 C5.69 1 3.38 1 1 1 C1.33 11.89 1.66 22.78 2 34 C3.32 34.33 4.64 34.66 6 35 C5.67 29.06 5.34 23.12 5 17 C5.99 17 6.98 17 8 17 C8 23.6 8 30.2 8 37 C5.36 37 2.72 37 0 37 C0 24.79 0 12.58 0 0 Z " fill="#17455A" transform="translate(374,44)"/>
<path d="M0 0 C1.22847656 0.04382812 2.45695313 0.08765625 3.72265625 0.1328125 C6.9375 0.875 6.9375 0.875 8.859375 3.16015625 C10.39036154 7.01535786 10.14681105 9.75854933 9.9375 13.875 C3.22925224 17.51710421 -3.37614505 19.2347358 -11.0625 18.875 C-13.0625 16.875 -13.0625 16.875 -13.2578125 13.6171875 C-13.23460938 12.34101562 -13.21140625 11.06484375 -13.1875 9.75 C-13.16945313 8.46867187 -13.15140625 7.18734375 -13.1328125 5.8671875 C-13.10960938 4.87976562 -13.08640625 3.89234375 -13.0625 2.875 C-12.4025 2.875 -11.7425 2.875 -11.0625 2.875 C-11.0625 2.215 -11.0625 1.555 -11.0625 0.875 C-7.33500681 -0.33947147 -3.89064115 -0.18819084 0 0 Z M-11.0625 2.875 C-11.0625 7.165 -11.0625 11.455 -11.0625 15.875 C-1.05374142 16.47612448 -1.05374142 16.47612448 7.9375 12.875 C8.99499557 9.79130113 8.99499557 9.79130113 8.9375 6.875 C5.95414332 3.9321938 4.4009017 2.9230209 0.16796875 2.484375 C-1.18024585 2.51068163 -2.52819518 2.55798196 -3.875 2.625 C-4.56787109 2.64304688 -5.26074219 2.66109375 -5.97460938 2.6796875 C-7.67117664 2.72648936 -9.36702476 2.79822376 -11.0625 2.875 Z " fill="#134D69" transform="translate(134.0625,54.125)"/>
<path d="M0 0 C1.12591553 0.00523682 2.25183105 0.01047363 3.41186523 0.01586914 C4.62680664 0.0190918 5.84174805 0.02231445 7.09350586 0.02563477 C8.37290039 0.03401367 9.65229492 0.04239258 10.97045898 0.05102539 C12.2537207 0.05553711 13.53698242 0.06004883 14.85913086 0.06469727 C18.04211921 0.07652994 21.22501661 0.09301471 24.40795898 0.11352539 C24.40795898 0.77352539 24.40795898 1.43352539 24.40795898 2.11352539 C18.46795898 1.78352539 12.52795898 1.45352539 6.40795898 1.11352539 C6.07795898 1.77352539 5.74795898 2.43352539 5.40795898 3.11352539 C3.75795898 2.78352539 2.10795898 2.45352539 0.40795898 2.11352539 C0.07795898 3.43352539 -0.25204102 4.75352539 -0.59204102 6.11352539 C0.52170898 5.90727539 1.63545898 5.70102539 2.78295898 5.48852539 C3.97920898 5.36477539 5.17545898 5.24102539 6.40795898 5.11352539 C8.40795898 7.11352539 8.40795898 7.11352539 8.63842773 10.96508789 C8.63442973 12.55629316 8.61964259 14.14749888 8.59545898 15.73852539 C8.59481445 16.52098633 8.59416992 17.30344727 8.59350586 18.10961914 C8.55560611 23.18818522 8.12692505 28.08651469 7.40795898 33.11352539 C7.07795898 33.11352539 6.74795898 33.11352539 6.40795898 33.11352539 C6.40795898 24.86352539 6.40795898 16.61352539 6.40795898 8.11352539 C3.43795898 8.11352539 0.46795898 8.11352539 -2.59204102 8.11352539 C-2.97267322 5.78743969 -3.30474046 3.45297275 -3.59204102 1.11352539 C-2.59204102 0.11352539 -2.59204102 0.11352539 0 0 Z " fill="#164A61" transform="translate(268.592041015625,43.886474609375)"/>
<path d="M0 0 C2.97 0 5.94 0 9 0 C9 12.21 9 24.42 9 37 C6.03 37 3.06 37 0 37 C0 24.79 0 12.58 0 0 Z M2 2 C0.82057915 5.53826255 0.88710811 8.34148726 0.90234375 12.07421875 C0.9037587 12.7580513 0.90517365 13.44188385 0.90663147 14.1464386 C0.91222124 16.32683722 0.92477178 18.50713251 0.9375 20.6875 C0.94251633 22.16731622 0.947079 23.64713406 0.95117188 25.12695312 C0.96218729 28.75133557 0.97944488 32.3756577 1 36 C3.31 36 5.62 36 8 36 C8 24.78 8 13.56 8 2 C6.02 2 4.04 2 2 2 Z " fill="#16475B" transform="translate(296,44)"/>
<path d="M0 0 C2.64 0 5.28 0 8 0 C8 12.21 8 24.42 8 37 C1 36 1 36 -1.4375 33.4375 C-1.953125 32.633125 -2.46875 31.82875 -3 31 C-2.34 30.67 -1.68 30.34 -1 30 C-0.34 30.33 0.32 30.66 1 31 C1.33 31.99 1.66 32.98 2 34 C3.65 34.66 5.3 35.32 7 36 C7 24.45 7 12.9 7 1 C5.02 1 3.04 1 1 1 C1 6.61 1 12.22 1 18 C0.67 18 0.34 18 0 18 C0 12.06 0 6.12 0 0 Z " fill="#1D485C" transform="translate(330,44)"/>
<path d="M0 0 C0.33 0.66 0.66 1.32 1 2 C0.30322266 4.03125 0.30322266 4.03125 -0.8359375 6.5 C-1.24070312 7.386875 -1.64546875 8.27375 -2.0625 9.1875 C-2.7121875 10.5796875 -2.7121875 10.5796875 -3.375 12 C-4.01308594 13.3921875 -4.01308594 13.3921875 -4.6640625 14.8125 C-7.57366071 21.14732143 -7.57366071 21.14732143 -9 24 C-12 23 -12 23 -13.16796875 21.00390625 C-13.50441406 20.19824219 -13.84085937 19.39257812 -14.1875 18.5625 C-14.53167969 17.75941406 -14.87585938 16.95632812 -15.23046875 16.12890625 C-16 14 -16 14 -16 12 C-15.01 12 -14.02 12 -13 12 C-12.67 14.31 -12.34 16.62 -12 19 C-7.62927779 16.52136532 -6.47722595 12.88496934 -4.875 8.375 C-2.24659478 1.12329739 -2.24659478 1.12329739 0 0 Z " fill="#174D65" transform="translate(93,40)"/>
<path d="M0 0 C0.94875 0.04125 1.8975 0.0825 2.875 0.125 C2.875 1.115 2.875 2.105 2.875 3.125 C1.225 3.125 -0.425 3.125 -2.125 3.125 C-2.125 6.095 -2.125 9.065 -2.125 12.125 C-0.145 11.795 1.835 11.465 3.875 11.125 C3.875 8.485 3.875 5.845 3.875 3.125 C4.535 2.795 5.195 2.465 5.875 2.125 C7.0625 3.6875 7.0625 3.6875 7.875 6.125 C5.63010204 12.74744898 5.63010204 12.74744898 2.875 14.125 C0.5420134 14.16522391 -1.79206666 14.16820247 -4.125 14.125 C-4.34642255 12.16810341 -4.5517568 10.20938048 -4.75 8.25 C-4.86601562 7.15945312 -4.98203125 6.06890625 -5.1015625 4.9453125 C-5.10929688 4.01460937 -5.11703125 3.08390625 -5.125 2.125 C-3.125 0.125 -3.125 0.125 0 0 Z " fill="#154C66" transform="translate(200.125,48.875)"/>
<path d="M0 0 C0.66 0 1.32 0 2 0 C2 1.65 2 3.3 2 5 C2.66 5.33 3.32 5.66 4 6 C3.113125 6.45375 2.22625 6.9075 1.3125 7.375 C-2.65461593 9.94195737 -3.97062678 13.60261734 -5.7265625 17.85546875 C-7 20 -7 20 -8.9609375 20.92578125 C-11 21 -11 21 -14 19 C-13.505 17.515 -13.505 17.515 -13 16 C-11.35 16.99 -9.7 17.98 -8 19 C-7.97421875 18.40832031 -7.9484375 17.81664063 -7.921875 17.20703125 C-7.54725903 11.98794973 -6.98993653 8.74812219 -3 5 C-2.34 5 -1.68 5 -1 5 C-0.67 3.35 -0.34 1.7 0 0 Z M0 4 C1 6 1 6 1 6 Z " fill="#164962" transform="translate(403,57)"/>
<path d="M0 0 C1.27617188 0.02320312 2.55234375 0.04640625 3.8671875 0.0703125 C5.78917969 0.09738281 5.78917969 0.09738281 7.75 0.125 C9.23113281 0.15980469 9.23113281 0.15980469 10.7421875 0.1953125 C11.0721875 1.1853125 11.4021875 2.1753125 11.7421875 3.1953125 C6.7921875 2.8653125 1.8421875 2.5353125 -3.2578125 2.1953125 C-3.2578125 6.4853125 -3.2578125 10.7753125 -3.2578125 15.1953125 C-0.2878125 15.1953125 2.6821875 15.1953125 5.7421875 15.1953125 C5.7421875 15.5253125 5.7421875 15.8553125 5.7421875 16.1953125 C1.67939275 17.04566489 -1.23121854 17.12136052 -5.2578125 16.1953125 C-5.31165771 13.90389964 -5.35053337 11.61213062 -5.3828125 9.3203125 C-5.40601562 8.04414062 -5.42921875 6.76796875 -5.453125 5.453125 C-5.18498778 0.98059624 -4.47252876 0.26813722 0 0 Z " fill="#165167" transform="translate(126.2578125,27.8046875)"/>
<path d="M0 0 C0.66 0 1.32 0 2 0 C2.76409027 3.43840621 3 6.45560807 3 10 C1.35 10 -0.3 10 -2 10 C-2.33 11.32 -2.66 12.64 -3 14 C-4.65 13.67 -6.3 13.34 -8 13 C-7.01 9.7 -6.02 6.4 -5 3 C-4.34 3 -3.68 3 -3 3 C-3.33 4.98 -3.66 6.96 -4 9 C-3.34 8.34 -2.68 7.68 -2 7 C-1.01 6.67 -0.02 6.34 1 6 C0.34 4.35 -0.32 2.7 -1 1 C-0.67 0.67 -0.34 0.34 0 0 Z " fill="#154D6A" transform="translate(115,97)"/>
<path d="M0 0 C2.05264866 2.05264866 2.56528526 3.13767959 3.5078125 5.80859375 C3.77207031 6.55560547 4.03632813 7.30261719 4.30859375 8.07226562 C4.57800781 8.85279297 4.84742188 9.63332031 5.125 10.4375 C5.40214844 11.21416016 5.67929687 11.99082031 5.96484375 12.79101562 C8 18.61076047 8 18.61076047 8 22 C0.61195219 22.36334661 0.61195219 22.36334661 -2 20.8125 C-3.30894168 18.44004321 -3.21620175 16.6664882 -3 14 C-2.34 14 -1.68 14 -1 14 C-0.67 15.98 -0.34 17.96 0 20 C1.98 20.33 3.96 20.66 6 21 C5.73445313 20.35933594 5.46890625 19.71867187 5.1953125 19.05859375 C0 6.33576642 0 6.33576642 0 0 Z " fill="#184A63" transform="translate(263,59)"/>
<path d="M0 0 C0.66 0 1.32 0 2 0 C2 4.29 2 8.58 2 13 C6.62 13 11.24 13 16 13 C13.35166292 15.64833708 11.68891639 15.44850203 8 15.75 C6.9275 15.84796875 5.855 15.9459375 4.75 16.046875 C2 16 2 16 0 14 C-0.1953125 10.7421875 -0.1953125 10.7421875 -0.125 6.875 C-0.10695313 5.59367187 -0.08890625 4.31234375 -0.0703125 2.9921875 C-0.04710938 2.00476562 -0.02390625 1.01734375 0 0 Z " fill="#1A526B" transform="translate(121,57)"/>
<path d="M0 0 C0.99 0 1.98 0 3 0 C3 4.29 3 8.58 3 13 C2.01 13.33 1.02 13.66 0 14 C0 13.34 0 12.68 0 12 C-0.66 11.67 -1.32 11.34 -2 11 C-1.85957123 9.35369672 -1.71250671 7.70795821 -1.5625 6.0625 C-1.48128906 5.14597656 -1.40007813 4.22945313 -1.31640625 3.28515625 C-1 1 -1 1 0 0 Z " fill="#0C496A" transform="translate(46,93)"/>
<path d="M0 0 C3 1 3 1 4.07495117 2.67407227 C4.39439697 3.38104248 4.71384277 4.0880127 5.04296875 4.81640625 C5.56987305 5.96206055 5.56987305 5.96206055 6.10742188 7.13085938 C6.46384766 7.93330078 6.82027344 8.73574219 7.1875 9.5625 C7.55552734 10.36880859 7.92355469 11.17511719 8.30273438 12.00585938 C9.21124489 13.99986298 10.10980336 15.99776958 11 18 C11.66 17.34 12.32 16.68 13 16 C13 17.32 13 18.64 13 20 C12.01 20.33 11.02 20.66 10 21 C4 11.28571429 4 11.28571429 4 7 C3.34 7 2.68 7 2 7 C1.34 4.69 0.68 2.38 0 0 Z " fill="#184D64" transform="translate(382,46)"/>
<path d="M0 0 C0.66 0.33 1.32 0.66 2 1 C2.05389087 2.95803507 2.09274217 4.91648909 2.125 6.875 C2.14820313 7.96554688 2.17140625 9.05609375 2.1953125 10.1796875 C2 13 2 13 0 15 C-2.32275177 15.40047444 -4.65739357 15.7397104 -7 16 C-7 15.34 -7 14.68 -7 14 C-5.02 13.34 -3.04 12.68 -1 12 C-0.67 8.04 -0.34 4.08 0 0 Z " fill="#054968" transform="translate(56,93)"/>
<path d="M0 0 C1.65 0.33 3.3 0.66 5 1 C4.33501617 5.38889325 2.81242323 8.9811485 1 13 C0.67 12.01 0.34 11.02 0 10 C-0.66 9.67 -1.32 9.34 -2 9 C-1.34 9 -0.68 9 0 9 C0 6.03 0 3.06 0 0 Z " fill="#0F4A5F" transform="translate(99,15)"/>
<path d="M0 0 C4.62 0 9.24 0 14 0 C14 0.33 14 0.66 14 1 C10.7 1.66 7.4 2.32 4 3 C4.66 5.31 5.32 7.62 6 10 C5.01 10.495 5.01 10.495 4 11 C3.32880451 9.5437455 2.66318193 8.08492133 2 6.625 C1.62875 5.81289063 1.2575 5.00078125 0.875 4.1640625 C0 2 0 2 0 0 Z " fill="#164A62" transform="translate(42,16)"/>
<path d="M0 0 C2.31 0 4.62 0 7 0 C7 0.33 7 0.66 7 1 C5.35 1 3.7 1 2 1 C2 4.96 2 8.92 2 13 C-0.97 13 -3.94 13 -7 13 C-7 12.67 -7 12.34 -7 12 C-4.36 12 -1.72 12 1 12 C0.649375 10.948125 0.29875 9.89625 -0.0625 8.8125 C-0.94970527 5.2045319 -1.05262882 3.47367511 0 0 Z " fill="#14465F" transform="translate(196,68)"/>
<path d="M0 0 C3.3 0 6.6 0 10 0 C10.33 1.98 10.66 3.96 11 6 C10.01 5.34 9.02 4.68 8 4 C8 3.34 8 2.68 8 2 C5.69 2.33 3.38 2.66 1 3 C0.34 4.98 -0.32 6.96 -1 9 C-2.25541557 5.23375329 -1.37061958 3.62811066 0 0 Z " fill="#194A59" transform="translate(249,44)"/>
<path d="M0 0 C2.85192331 2.72792664 3.93818571 4.05138847 4.203125 8.1171875 C4.21859375 9.35726562 4.2340625 10.59734375 4.25 11.875 C4.27578125 13.10992187 4.3015625 14.34484375 4.328125 15.6171875 C3.98550073 19.14948054 3.40930359 20.4765715 1 23 C1.165 22.21625 1.33 21.4325 1.5 20.625 C2.49374563 13.42034415 3.02615896 7.37475168 -1 1 C-0.67 0.67 -0.34 0.34 0 0 Z " fill="#184659" transform="translate(152,23)"/>
<path d="M0 0 C1.9453125 -0.29296875 1.9453125 -0.29296875 4.125 -0.1875 C5.40375 -0.125625 6.6825 -0.06375 8 0 C8 0.66 8 1.32 8 2 C6.906875 2.226875 5.81375 2.45375 4.6875 2.6875 C0.49672376 4.17913222 -0.08207678 5.16415357 -2 9 C-2.66 9 -3.32 9 -4 9 C-2.94124926 5.59687262 -1.99097846 2.98646769 0 0 Z " fill="#1A485B" transform="translate(403,44)"/>
<path d="M0 0 C1.16344173 3.49032519 0.76539718 4.56707628 -0.3125 8 C-0.57675781 8.86625 -0.84101562 9.7325 -1.11328125 10.625 C-2 13 -2 13 -4 16 C-4.66 16 -5.32 16 -6 16 C-4.25192871 10.53262809 -2.34205919 5.24175152 0 0 Z " fill="#144A60" transform="translate(84,24)"/>
<path d="M0 0 C0.66 0 1.32 0 2 0 C2.70180531 1.4096347 3.38593958 2.82807641 4.0625 4.25 C4.44535156 5.03890625 4.82820313 5.8278125 5.22265625 6.640625 C6.08564091 9.25993522 5.93045933 10.44855176 5 13 C0.87010523 8.73688282 0.38728235 5.71241466 0 0 Z " fill="#144B66" transform="translate(57,16)"/>
<path d="M0 0 C4.62 0 9.24 0 14 0 C14.33 0.99 14.66 1.98 15 3 C10.05 2.67 5.1 2.34 0 2 C0 1.34 0 0.68 0 0 Z " fill="#154661" transform="translate(123,28)"/>
<path d="M0 0 C0.66 0 1.32 0 2 0 C2 1.98 2 3.96 2 6 C-0.97 6 -3.94 6 -7 6 C-7.33 5.34 -7.66 4.68 -8 4 C-4.94736336 3.01879536 -3.05263664 3.01879536 0 4 C0 2.68 0 1.36 0 0 Z " fill="#164E68" transform="translate(291,46)"/>
<path d="M0 0 C0.99 0 1.98 0 3 0 C3 3.3 3 6.6 3 10 C2.01 9.67 1.02 9.34 0 9 C0 6.03 0 3.06 0 0 Z " fill="#085471" transform="translate(146,100)"/>
<path d="M0 0 C5.42892065 0.43431365 8.70796704 1.62768839 13 5 C13.33 5.66 13.66 6.32 14 7 C9.25981099 5.16508812 4.63586749 3.08058541 0 1 C0 0.67 0 0.34 0 0 Z " fill="#194B5E" transform="translate(138,16)"/>
<path d="M0 0 C0.33 0 0.66 0 1 0 C1 5.28 1 10.56 1 16 C1.99 15.67 2.98 15.34 4 15 C4 15.99 4 16.98 4 18 C2.68 18 1.36 18 0 18 C0 12.06 0 6.12 0 0 Z " fill="#155071" transform="translate(78,93)"/>
<path d="M0 0 C0.66 0 1.32 0 2 0 C2.45375 0.825 2.9075 1.65 3.375 2.5 C3.91125 3.325 4.4475 4.15 5 5 C6.32 5 7.64 5 9 5 C9 5.99 9 6.98 9 8 C7.35 8 5.7 8 4 8 C3.34 6.35 2.68 4.7 2 3 C1.34 3 0.68 3 0 3 C0 2.01 0 1.02 0 0 Z " fill="#1C4D66" transform="translate(82,103)"/>
<path d="M0 0 C4.62 0 9.24 0 14 0 C13.67 1.65 13.34 3.3 13 5 C12.34 4.01 11.68 3.02 11 2 C8.10391601 1.63501966 8.10391601 1.63501966 4.875 1.8125 C3.77929688 1.83957031 2.68359375 1.86664063 1.5546875 1.89453125 C0.29011719 1.94673828 0.29011719 1.94673828 -1 2 C-0.67 1.34 -0.34 0.68 0 0 Z " fill="#1B465D" transform="translate(139,92)"/>
<path d="M0 0 C0.66 0 1.32 0 2 0 C2.29296875 6.0546875 2.29296875 6.0546875 2 8 C-1.4352048 10.29013653 -2.985331 10.17842973 -7 10 C-6.401875 9.731875 -5.80375 9.46375 -5.1875 9.1875 C-2.92899048 7.96145198 -1.52937348 7.06465419 0 5 C0.25069913 2.37429296 0.25069913 2.37429296 0 0 Z " fill="#174861" transform="translate(142,60)"/>
<path d="M0 0 C5 7.5 5 7.5 5 12 C4.34 12 3.68 12 3 12 C-0.42857143 4.71428571 -0.42857143 4.71428571 0 0 Z " fill="#154B65" transform="translate(70,43)"/>
<path d="M0 0 C0.66 0.33 1.32 0.66 2 1 C-1.65333143 3.63379708 -4.48521602 5.46884894 -9 6 C-9 5.01 -9 4.02 -9 3 C-7.88625 2.690625 -6.7725 2.38125 -5.625 2.0625 C-2.2054845 1.17673517 -2.2054845 1.17673517 0 0 Z " fill="#16465E" transform="translate(150,78)"/>
<path d="M0 0 C2 3 2 3 3 6 C1.35 6.33 -0.3 6.66 -2 7 C-2.66 5.68 -3.32 4.36 -4 3 C-3.34 3 -2.68 3 -2 3 C-2 3.66 -2 4.32 -2 5 C-1.34 5 -0.68 5 0 5 C0 3.35 0 1.7 0 0 Z " fill="#1E4B5F" transform="translate(122,104)"/>
<path d="M0 0 C0.66 0 1.32 0 2 0 C2 1.65 2 3.3 2 5 C2.66 5.33 3.32 5.66 4 6 C2.02 6.99 2.02 6.99 0 8 C-0.38063221 5.6739143 -0.71269945 3.33944736 -1 1 C-0.67 0.67 -0.34 0.34 0 0 Z " fill="#0D536F" transform="translate(403,57)"/>
<path d="M0 0 C0.66 0.33 1.32 0.66 2 1 C1.67 2.65 1.34 4.3 1 6 C0.01 6 -0.98 6 -2 6 C-2.33 5.01 -2.66 4.02 -3 3 C-2.01 2.01 -1.02 1.02 0 0 Z " fill="#125074" transform="translate(239,74)"/>
<path d="M0 0 C-0.6875 1.9375 -0.6875 1.9375 -2 4 C-4.625 4.75 -4.625 4.75 -7 5 C-6.34 4.67 -5.68 4.34 -5 4 C-5 3.01 -5 2.02 -5 1 C-3 0 -3 0 0 0 Z " fill="#19475C" transform="translate(368,75)"/>
<path d="M0 0 C0.66 0 1.32 0 2 0 C3.125 5.625 3.125 5.625 2 9 C1.34 9 0.68 9 0 9 C0 6.03 0 3.06 0 0 Z " fill="#1A4D64" transform="translate(140,32)"/>
<path d="M0 0 C0.66 0.33 1.32 0.66 2 1 C1.67 3.31 1.34 5.62 1 8 C0.34 7.67 -0.32 7.34 -1 7 C-0.67 4.69 -0.34 2.38 0 0 Z " fill="#113E5D" transform="translate(88,94)"/>
<path d="M0 0 C0.66 0 1.32 0 2 0 C2.12375 0.969375 2.2475 1.93875 2.375 2.9375 C2.684375 4.4534375 2.684375 4.4534375 3 6 C3.66 6.33 4.32 6.66 5 7 C3.68 7 2.36 7 1 7 C0.67 4.69 0.34 2.38 0 0 Z " fill="#154155" transform="translate(260,73)"/>
<path d="M0 0 C0.66 0 1.32 0 2 0 C2 2.31 2 4.62 2 7 C1.01 7.495 1.01 7.495 0 8 C-1.125 2.25 -1.125 2.25 0 0 Z " fill="#174F66" transform="translate(76,44)"/>
<path d="M0 0 C1.65 0 3.3 0 5 0 C5.33 1.32 5.66 2.64 6 4 C3.69 3.34 1.38 2.68 -1 2 C-0.67 1.34 -0.34 0.68 0 0 Z " fill="#084D6F" transform="translate(94,16)"/>
<path d="M0 0 C0.33 0 0.66 0 1 0 C1 3.63 1 7.26 1 11 C0.67 11 0.34 11 0 11 C0 7.37 0 3.74 0 0 Z " fill="#004D6F" transform="translate(52,93)"/>
<path d="" fill="#000000" transform="translate(0,0)"/>
</svg>
